<svg xmlns="http://www.w3.org/2000/svg" fill="none" width="215" height="46" aria-hidden="true" role="img" class="svg svg--logo" viewBox="0 0 215 46">
  <path fill="#264A5C" d="M58.4 23c0-8.4 4.5-14.6 13.2-14.6 7 0 11.7 4.7 12 10.7h-5.5c-.3-3-2.3-5.6-6.5-5.6-5.2 0-7.6 3.8-7.6 9.5s2.4 9.5 7.6 9.5c4 0 6-2.4 6.5-5.4h5.6c-.6 5.8-5 10.4-12 10.4-8.8 0-13.3-6.3-13.3-14.5Zm86.3-14.6c-3.2 0-6.2 1.1-8.6 3l3.1 4.4c1.6-1.2 3.5-2 5.5-2 5 0 8.2 4.1 8.2 9 0 5-3.3 9.1-8.2 9.1-1.8 0-3.6-.6-5.1-1.6l-3.3 4.3c2.4 1.7 5.3 2.8 8.4 2.8 8 0 14.3-6.5 14.3-14.5s-6.4-14.5-14.3-14.5Zm35.1 19h-.1l-10-17.9h-7.2V37h6V19h.2l10 17.8h7.1V9.5h-6v17.9Zm-83.6 5.4c-3.4 0-4.6-2.8-4.6-6.2 0-3.3 1.1-6.1 4.6-6.1 3.4 0 4.6 2.9 4.6 6.1 0 3.4-1.2 6.2-4.6 6.2Zm4.4-14.5h-.1a6.8 6.8 0 0 0-5.8-2.6c-5.5 0-8.6 4.6-8.6 11 0 6.2 3.1 10.9 8.6 10.9 3 0 4.8-1.2 5.8-2.6h.2l.6 2.2h4.7V16.1h-4.8l-.6 2.2Zm108.3 5c0 5.8-2 8.5-6 8.5-4.6 0-7.1-3-7.1-8.8 0-5.7 2.5-8.8 7.2-8.8 3.9 0 5.5 2.1 6 4.5l5.4-2c-1.3-4.7-5.2-8.3-11.4-8.3-9 0-13.6 6.4-13.6 14.6 0 8 3.7 14.5 12.8 14.5 6.2 0 7.3-6.5 7.3-6.5h.3l-.7 5.9h5.9V23.2h-6.1Zm-83.3 14V20.8h-4.9c-3.2 0-5 2.2-5 6v10.5h-5.2V16h4.6l.4 4.5h.1c1-2 2.8-4.8 5.5-4.8h4.7v-5.1l4.8-1.2h.4V16h4l.7 4.6H131v16.6h-5.4Z"></path>
  <path fill="#D1E5E3" d="M41 8.8c.6 1.9.9 3.8.9 5.8 0 10.6-11 31.4-19 31.4A23 23 0 0 0 41 8.8ZM4 14.6c0-2 .3-4 .8-5.8A23.2 23.2 0 0 0 23 46C15.2 46 4 25.2 4 14.6Z"></path>
  <path fill="#264A5C" d="M15.6 26.5c0-6.6 3.2-12 7.3-12 4 0 7.3 5.4 7.3 12v.7A14.6 14.6 0 0 0 22.9 0a14.6 14.6 0 0 0-7.3 27.2v-.7ZM22.9 4c1 0 2 .5 2.8 1.2a4.1 4.1 0 0 1-2.8 7A4 4 0 0 1 20 11a4.1 4.1 0 0 1 3-7Zm-4.4 26.3C18.7 35 21.6 43 22.9 43c1.2 0 4.2-8 4.4-12.7a9.8 9.8 0 0 1-8.8 0Z"></path>
</svg>