<svg width="28" height="28" viewBox="0 0 28 28" fill="none" xmlns="http://www.w3.org/2000/svg">
<path d="M20.0394 10.1073C21.84 11.399 24.0458 12.159 26.4281 12.159V7.5583C25.9773 7.55839 25.5276 7.51121 25.0865 7.41742V11.0388C22.7043 11.0388 20.4988 10.2788 18.6977 8.98722V18.3759C18.6977 23.0726 14.9038 26.8798 10.2241 26.8798C8.47797 26.8798 6.85502 26.35 5.50684 25.4415C7.04557 27.0204 9.19144 27.9999 11.5655 27.9999C16.2455 27.9999 20.0396 24.1927 20.0396 19.4958V10.1073H20.0394ZM21.6945 5.46574C20.7743 4.45685 20.1701 3.15304 20.0394 1.71162V1.11987H18.768C19.088 2.95191 20.1796 4.5171 21.6945 5.46574ZM8.46677 21.8374C7.95265 21.1609 7.67482 20.3333 7.67607 19.4824C7.67607 17.3343 9.41137 15.5926 11.5523 15.5926C11.9513 15.5925 12.3479 15.6538 12.7281 15.7749V11.0713C12.2837 11.0102 11.8353 10.9843 11.387 10.9938V14.6548C11.0065 14.5337 10.6097 14.4722 10.2106 14.4726C8.0697 14.4726 6.33449 16.2141 6.33449 18.3625C6.33449 19.8815 7.20185 21.1967 8.46677 21.8374Z" fill="#FF004F"/>
<path d="M18.6978 8.98713C20.4988 10.2787 22.7043 11.0387 25.0865 11.0387V7.41733C23.7568 7.13308 22.5796 6.43572 21.6946 5.46574C20.1796 4.517 19.0881 2.95182 18.768 1.11987H15.4283V19.4956C15.4208 21.6379 13.6884 23.3725 11.5521 23.3725C10.2932 23.3725 9.17484 22.7702 8.46654 21.8374C7.20171 21.1967 6.33435 19.8814 6.33435 18.3626C6.33435 16.2144 8.06956 14.4727 10.2105 14.4727C10.6206 14.4727 11.016 14.5368 11.3869 14.6549V10.9939C6.78932 11.0892 3.0918 14.8592 3.0918 19.4957C3.0918 21.8103 4.01257 23.9085 5.50699 25.4416C6.85517 26.35 8.47812 26.8799 10.2242 26.8799C14.9041 26.8799 18.6979 23.0726 18.6979 18.3759V8.98713H18.6978Z" fill="black"/>
<path d="M25.0863 7.41744V6.43823C23.8872 6.44006 22.7117 6.10306 21.6944 5.46576C22.5949 6.45524 23.7808 7.13751 25.0863 7.41744ZM18.7678 1.11998C18.7373 0.944897 18.7138 0.76866 18.6976 0.59175V0H14.0864V18.3759C14.079 20.5179 12.3467 22.2525 10.2102 22.2525C9.583 22.2525 8.99078 22.1031 8.46632 21.8376C9.17463 22.7703 10.293 23.3725 11.5519 23.3725C13.688 23.3725 15.4207 21.6381 15.4281 19.4958V1.11998H18.7678ZM11.3868 10.994V9.95154C11.0015 9.89869 10.6131 9.87217 10.2241 9.87236C5.5439 9.87226 1.75 13.6796 1.75 18.3759C1.75 21.3203 3.24107 23.9151 5.50686 25.4415C4.01244 23.9085 3.09168 21.8102 3.09168 19.4957C3.09168 14.8593 6.78911 11.0893 11.3868 10.994Z" fill="#00F2EA"/>
</svg>
